<?xml version="1.0" standalone="no"?>
<!DOCTYPE svg PUBLIC "-//W3C//DTD SVG 20010904//EN"
 "http://www.w3.org/TR/2001/REC-SVG-20010904/DTD/svg10.dtd">
<svg version="1.0" xmlns="http://www.w3.org/2000/svg"
 width="670.000000pt" height="166.000000pt" viewBox="0 0 670.000000 166.000000"
 preserveAspectRatio="xMidYMid meet">
<metadata>
Created by potrace 1.16, written by Peter Selinger 2001-2019
</metadata>
<g transform="translate(0.000000,166.000000) scale(0.100000,-0.100000)"
fill="#000000" stroke="none">
<path d="M2329 1444 c-8 -10 -14 -55 -17 -123 -4 -101 -3 -110 17 -130 26 -26
81 -28 112 -2 21 17 23 26 23 126 1 100 0 108 -23 126 -29 23 -93 25 -112 3z"/>
<path d="M702 1280 c-40 -16 -52 -66 -52 -210 l0 -130 -145 0 -145 0 0 143 c0
180 -5 191 -82 195 -95 5 -92 16 -96 -421 -3 -264 0 -377 8 -397 24 -57 120
-64 147 -10 9 17 13 78 13 188 l0 162 150 0 151 0 -3 -163 c-3 -139 -1 -166
14 -189 35 -53 128 -44 147 15 12 37 17 762 6 790 -13 32 -67 45 -113 27z"/>
<path d="M1970 1272 c-15 -12 -25 -35 -31 -68 -13 -79 -11 -719 2 -748 25 -54
103 -58 140 -6 17 23 18 58 21 413 l3 389 -24 19 c-29 24 -82 24 -111 1z"/>
<path d="M4076 1258 c-16 -15 -50 -85 -92 -188 -36 -91 -102 -252 -145 -359
-44 -107 -79 -209 -79 -227 0 -40 32 -65 85 -67 46 -1 77 29 109 108 l24 60
159 2 158 3 30 -73 c25 -59 36 -75 65 -89 68 -33 139 8 126 73 -11 55 -291
732 -313 755 -30 32 -92 33 -127 2z m118 -411 c21 -49 36 -91 33 -93 -2 -3
-45 -3 -95 -2 l-91 3 47 106 c54 122 48 122 106 -14z"/>
<path d="M954 1245 c-21 -32 -11 -89 19 -110 52 -37 130 -5 130 54 0 48 -36
81 -90 81 -34 0 -46 -5 -59 -25z"/>
<path d="M5696 1248 c-36 -51 -2 -128 55 -128 32 0 69 16 81 34 18 26 8 75
-18 95 -37 29 -98 28 -118 -1z"/>
<path d="M4783 1211 c-37 -17 -44 -26 -57 -72 -9 -29 -16 -83 -16 -121 l0 -68
-39 0 c-48 0 -71 -21 -71 -64 0 -43 16 -56 67 -56 l43 0 0 -179 c0 -205 4
-218 75 -228 33 -4 44 -1 60 17 18 20 20 39 23 206 l4 184 43 0 c34 0 47 5 59
22 36 52 5 98 -67 98 l-38 0 3 63 3 62 46 5 c61 7 79 23 79 70 0 55 -26 74
-108 78 -50 2 -77 -2 -109 -17z"/>
<path d="M5111 1014 c-20 -25 -21 -39 -21 -281 0 -308 2 -316 82 -311 42 2 55
8 71 31 19 24 21 45 25 180 5 168 7 174 74 208 45 23 74 24 121 4 53 -22 93
-19 111 7 32 46 8 95 -65 134 -50 26 -165 24 -213 -4 -35 -21 -36 -21 -36 -2
0 60 -109 84 -149 34z"/>
<path d="M973 1020 c-37 -16 -45 -74 -41 -310 3 -186 5 -220 21 -243 19 -30
54 -42 92 -33 47 12 50 32 50 303 0 280 0 280 -66 288 -19 3 -44 0 -56 -5z"/>
<path d="M5713 1020 c-38 -16 -45 -67 -41 -307 3 -207 4 -223 24 -250 30 -40
88 -40 118 0 20 27 21 40 21 277 0 277 0 277 -66 285 -19 3 -44 0 -56 -5z"/>
<path d="M5964 994 l-26 -25 3 -244 c4 -229 5 -245 25 -272 28 -37 81 -43 110
-12 17 18 20 41 24 179 5 171 9 182 67 206 38 17 87 3 105 -30 7 -12 15 -84
18 -167 8 -176 17 -199 80 -199 67 0 75 23 74 214 -1 177 -11 229 -51 277 -57
67 -174 89 -253 49 -22 -11 -40 -16 -40 -10 0 6 -11 22 -25 35 -32 33 -78 33
-111 -1z"/>
<path d="M2676 994 c-26 -25 -28 -54 -24 -282 3 -150 8 -224 16 -240 31 -54
121 -48 141 10 6 17 11 88 11 158 0 114 2 130 21 154 11 14 29 26 39 26 38 0
45 -27 50 -192 5 -153 6 -161 29 -179 30 -25 66 -24 91 1 18 18 20 33 20 180
0 147 2 162 20 180 25 25 33 25 52 3 13 -14 17 -52 20 -180 4 -183 12 -203 75
-203 73 0 90 56 79 275 -10 206 -41 259 -161 271 -47 4 -68 1 -95 -13 -34 -17
-36 -17 -70 0 -47 25 -133 17 -166 -14 l-24 -22 0 21 c0 52 -87 84 -124 46z"/>
<path d="M1270 591 c-59 -63 -92 -128 -88 -173 2 -28 8 -34 30 -36 15 -2 33 0
41 5 32 20 157 164 157 181 0 28 -30 60 -63 68 -25 6 -34 0 -77 -45z"/>
</g>
</svg>
